<?xml version="1.0" encoding="UTF-8"?>
<svg width="111px" height="22px" viewBox="0 0 111 22" version="1.1" xmlns="http://www.w3.org/2000/svg" xmlns:xlink="http://www.w3.org/1999/xlink">
    <!-- Generator: Sketch 63 (92445) - https://sketch.com -->
    <title>stiven</title>
    <desc>Created with Sketch.</desc>
    <g id="Page-1" stroke="none" stroke-width="1" fill="none" fill-rule="evenodd">
        <g id="Desktop-HD" transform="translate(-248.000000, -38.000000)" fill-rule="nonzero">
            <g id="stiven." transform="translate(248.667969, 38.396484)">
                <path d="M6.8359375,20.890625 C7.84765625,20.890625 8.76367188,20.7789714 9.58398438,20.5556641 C10.4042969,20.3323568 11.1038411,20.0201823 11.6826172,19.6191406 C12.2613932,19.218099 12.7080078,18.741862 13.0224609,18.1904297 C13.3369141,17.6389974 13.4941406,17.0351562 13.4941406,16.3789062 C13.4941406,15.6679688 13.3369141,15.055013 13.0224609,14.5400391 C12.7080078,14.0250651 12.2727865,13.5875651 11.7167969,13.2275391 C11.1608073,12.867513 10.5,12.5735677 9.734375,12.3457031 C8.96875,12.1178385 8.13932292,11.9309896 7.24609375,11.7851562 C6.62630208,11.6940104 6.11588542,11.5869141 5.71484375,11.4638672 C5.31380208,11.3408203 4.99707031,11.2041016 4.76464844,11.0537109 C4.53222656,10.9033203 4.37044271,10.7347005 4.27929688,10.5478516 C4.18815104,10.3610026 4.14257812,10.1582031 4.14257812,9.93945312 C4.14257812,9.47460938 4.36816406,9.08268229 4.81933594,8.76367188 C5.27050781,8.44466146 5.93815104,8.28515625 6.82226562,8.28515625 C7.77018229,8.28515625 8.4765625,8.47884115 8.94140625,8.86621094 C9.40625,9.25358073 9.63867188,9.734375 9.63867188,10.3085938 L9.63867188,10.3085938 L13.4394531,10.3085938 C13.4394531,9.625 13.2890625,8.99153646 12.9882812,8.40820312 C12.6875,7.82486979 12.2522786,7.32128906 11.6826172,6.89746094 C11.1129557,6.47363281 10.4179688,6.14095052 9.59765625,5.89941406 C8.77734375,5.6578776 7.85221354,5.53710938 6.82226562,5.53710938 C5.83789062,5.53710938 4.95377604,5.66015625 4.16992188,5.90625 C3.38606771,6.15234375 2.72070312,6.48502604 2.17382812,6.90429688 C1.62695312,7.32356771 1.20768229,7.81119792 0.916015625,8.3671875 C0.624348958,8.92317708 0.478515625,9.50651042 0.478515625,10.1171875 C0.478515625,10.7460938 0.622070312,11.3020833 0.909179688,11.7851562 C1.19628906,12.2682292 1.59505208,12.6943359 2.10546875,13.0634766 C2.61588542,13.4326172 3.22884115,13.7470703 3.94433594,14.0068359 C4.65983073,14.2666016 5.45052083,14.4830729 6.31640625,14.65625 C7,14.7838542 7.56510417,14.9114583 8.01171875,15.0390625 C8.45833333,15.1666667 8.81608073,15.3056641 9.08496094,15.4560547 C9.35384115,15.6064453 9.5406901,15.7682292 9.64550781,15.9414062 C9.75032552,16.1145833 9.80273438,16.3151042 9.80273438,16.5429688 C9.80273438,17.0169271 9.55664062,17.4042969 9.06445312,17.7050781 C8.57226562,18.0058594 7.85677083,18.15625 6.91796875,18.15625 C6.5078125,18.15625 6.10904948,18.1152344 5.72167969,18.0332031 C5.3343099,17.9511719 4.99023438,17.8212891 4.68945312,17.6435547 C4.38867188,17.4658203 4.14257812,17.2333984 3.95117188,16.9462891 C3.75976562,16.6591797 3.65039062,16.3151042 3.62304688,15.9140625 L3.62304688,15.9140625 L0,15.9140625 C0,16.515625 0.148111979,17.1149089 0.444335938,17.7119141 C0.740559896,18.3089193 1.17578125,18.8421224 1.75,19.3115234 C2.32421875,19.7809245 3.0374349,20.1614583 3.88964844,20.453125 C4.74186198,20.7447917 5.72395833,20.890625 6.8359375,20.890625 Z M25.6074219,20.890625 C26.0266927,20.890625 26.4527995,20.8701172 26.8857422,20.8291016 C27.3186849,20.7880859 27.7356771,20.7311198 28.1367188,20.6582031 C28.5377604,20.5852865 28.9160156,20.491862 29.2714844,20.3779297 C29.6269531,20.2639974 29.936849,20.1295573 30.2011719,19.9746094 L30.2011719,19.9746094 L29.8320312,17.3632812 C29.6588542,17.4088542 29.4514974,17.4544271 29.2099609,17.5 C28.9684245,17.5455729 28.7086589,17.5888672 28.4306641,17.6298828 C28.1526693,17.6708984 27.8610026,17.7050781 27.5556641,17.7324219 C27.2503255,17.7597656 26.9518229,17.7734375 26.6601562,17.7734375 C26.2591146,17.7734375 25.8968099,17.7278646 25.5732422,17.6367188 C25.2496745,17.5455729 24.9739583,17.3929036 24.7460938,17.1787109 C24.5182292,16.9645182 24.3427734,16.6774089 24.2197266,16.3173828 C24.0966797,15.9573568 24.0351562,15.5084635 24.0351562,14.9707031 L24.0351562,14.9707031 L24.0351562,8.61328125 L29.5585938,8.61328125 L29.5585938,5.81054688 L24.0351562,5.81054688 L24.0351562,2.1875 L20.234375,2.1875 L20.234375,5.81054688 L16.8574219,5.81054688 L16.8574219,8.61328125 L20.234375,8.61328125 L20.234375,15.3398438 C20.234375,16.3151042 20.3619792,17.1513672 20.6171875,17.8486328 C20.8723958,18.5458984 21.2347005,19.1201172 21.7041016,19.5712891 C22.1735026,20.0224609 22.7386068,20.3551432 23.3994141,20.5693359 C24.0602214,20.7835286 24.796224,20.890625 25.6074219,20.890625 Z M41.0019531,4.046875 C41.6764323,4.046875 42.2119141,3.8577474 42.6083984,3.47949219 C43.0048828,3.10123698 43.203125,2.61588542 43.203125,2.0234375 C43.203125,1.43098958 43.0048828,0.945638021 42.6083984,0.567382812 C42.2119141,0.189127604 41.6764323,0 41.0019531,0 C40.6738281,0 40.3753255,0.0501302083 40.1064453,0.150390625 C39.8375651,0.250651042 39.6074219,0.389648438 39.4160156,0.567382812 C39.2246094,0.745117188 39.0764974,0.959309896 38.9716797,1.20996094 C38.866862,1.46061198 38.8144531,1.73177083 38.8144531,2.0234375 C38.8144531,2.31510417 38.866862,2.58626302 38.9716797,2.83691406 C39.0764974,3.0875651 39.2246094,3.30175781 39.4160156,3.47949219 C39.6074219,3.65722656 39.8375651,3.79622396 40.1064453,3.89648438 C40.3753255,3.99674479 40.6738281,4.046875 41.0019531,4.046875 Z M46.9355469,20.6035156 L46.9355469,17.5136719 L42.9296875,17.5136719 L42.9296875,5.81054688 L34.8769531,5.81054688 L34.8769531,8.9140625 L39.0878906,8.9140625 L39.0878906,17.5136719 L34.8769531,17.5136719 L34.8769531,20.6035156 L46.9355469,20.6035156 Z M58.9394531,20.6035156 L64.5585938,5.81054688 L60.59375,5.81054688 L57.3398438,16.2558594 L57.1484375,17.28125 L56.9570312,16.2148438 L53.6894531,5.81054688 L49.7246094,5.81054688 L55.3710938,20.6035156 L58.9394531,20.6035156 Z M74.6484375,20.8769531 C75.3776042,20.8769531 76.0566406,20.7994792 76.6855469,20.6445312 C77.3144531,20.4895833 77.8863932,20.2867839 78.4013672,20.0361328 C78.9163411,19.7854818 79.3629557,19.4983724 79.7412109,19.1748047 C80.1194661,18.851237 80.4270833,18.5208333 80.6640625,18.1835938 L80.6640625,18.1835938 L78.7636719,16.1328125 C78.5449219,16.4153646 78.2897135,16.6614583 77.9980469,16.8710938 C77.7063802,17.0807292 77.3919271,17.2561849 77.0546875,17.3974609 C76.7174479,17.538737 76.3642578,17.6458333 75.9951172,17.71875 C75.6259766,17.7916667 75.2545573,17.828125 74.8808594,17.828125 C74.3522135,17.828125 73.8645833,17.7460938 73.4179688,17.5820312 C72.9713542,17.4179688 72.5748698,17.1855469 72.2285156,16.8847656 C71.8821615,16.5839844 71.5973307,16.226237 71.3740234,15.8115234 C71.1507161,15.3968099 71.0026042,14.9388021 70.9296875,14.4375 L70.9296875,14.4375 L80.9648438,14.4375 L80.9648438,12.8242188 C80.9648438,11.7395833 80.8144531,10.7483724 80.5136719,9.85058594 C80.2128906,8.95279948 79.773112,8.18489583 79.1943359,7.546875 C78.6155599,6.90885417 77.9091797,6.41438802 77.0751953,6.06347656 C76.2412109,5.7125651 75.2910156,5.53710938 74.2246094,5.53710938 C73.1946615,5.53710938 72.2421875,5.72395833 71.3671875,6.09765625 C70.4921875,6.47135417 69.7356771,6.99544271 69.0976562,7.66992188 C68.4596354,8.34440104 67.9628906,9.14876302 67.6074219,10.0830078 C67.2519531,11.0172526 67.0742188,12.0494792 67.0742188,13.1796875 L67.0742188,13.1796875 L67.0742188,13.7265625 C67.0742188,14.7200521 67.2542318,15.6520182 67.6142578,16.5224609 C67.9742839,17.3929036 68.4869792,18.1494141 69.1523438,18.7919922 C69.8177083,19.4345703 70.6152344,19.9427083 71.5449219,20.3164062 C72.4746094,20.6901042 73.5091146,20.8769531 74.6484375,20.8769531 Z M77.2324219,11.8125 L70.9980469,11.8125 C71.0891927,11.3294271 71.2259115,10.8919271 71.4082031,10.5 C71.5904948,10.1080729 71.8160807,9.77083333 72.0849609,9.48828125 C72.3538411,9.20572917 72.6660156,8.98925781 73.0214844,8.83886719 C73.3769531,8.68847656 73.7688802,8.61328125 74.1972656,8.61328125 C74.6803385,8.61328125 75.1064453,8.68847656 75.4755859,8.83886719 C75.8447266,8.98925781 76.156901,9.19433594 76.4121094,9.45410156 C76.6673177,9.71386719 76.8632812,10.0214844 77,10.3769531 C77.1367188,10.7324219 77.2141927,11.1106771 77.2324219,11.5117188 L77.2324219,11.5117188 L77.2324219,11.8125 Z M88.0878906,20.6035156 L88.0878906,10.0898438 C88.3704427,9.63411458 88.7395833,9.27636719 89.1953125,9.01660156 C89.6510417,8.75683594 90.202474,8.62695312 90.8496094,8.62695312 C91.2871094,8.62695312 91.6790365,8.6702474 92.0253906,8.75683594 C92.3717448,8.84342448 92.6679688,8.99609375 92.9140625,9.21484375 C93.1601562,9.43359375 93.3492839,9.73209635 93.4814453,10.1103516 C93.6136068,10.4886068 93.6796875,10.969401 93.6796875,11.5527344 L93.6796875,11.5527344 L93.6796875,20.6035156 L97.4804688,20.6035156 L97.4804688,11.4980469 C97.4804688,10.422526 97.3551432,9.50878906 97.1044922,8.75683594 C96.8538411,8.00488281 96.5029297,7.38964844 96.0517578,6.91113281 C95.6005859,6.43261719 95.0651042,6.08398438 94.4453125,5.86523438 C93.8255208,5.64648438 93.1419271,5.53710938 92.3945312,5.53710938 C91.4739583,5.53710938 90.6354167,5.73990885 89.8789062,6.14550781 C89.1223958,6.55110677 88.4798177,7.12304688 87.9511719,7.86132812 L87.9511719,7.86132812 L87.71875,5.81054688 L84.2734375,5.81054688 L84.2734375,20.6035156 L88.0878906,20.6035156 Z" id="stiven" fill="#404041"></path>
                <path d="M107.556641,20.8769531 C107.966797,20.8769531 108.335938,20.813151 108.664062,20.6855469 C108.992188,20.5579427 109.267904,20.382487 109.491211,20.1591797 C109.714518,19.9358724 109.887695,19.6738281 110.010742,19.3730469 C110.133789,19.0722656 110.195312,18.7486979 110.195312,18.4023438 C110.195312,18.046875 110.133789,17.7164714 110.010742,17.4111328 C109.887695,17.1057943 109.714518,16.8414714 109.491211,16.6181641 C109.267904,16.3948568 108.992188,16.2171224 108.664062,16.0849609 C108.335938,15.9527995 107.966797,15.8867188 107.556641,15.8867188 C107.146484,15.8867188 106.777344,15.9527995 106.449219,16.0849609 C106.121094,16.2171224 105.843099,16.3948568 105.615234,16.6181641 C105.38737,16.8414714 105.214193,17.1057943 105.095703,17.4111328 C104.977214,17.7164714 104.917969,18.046875 104.917969,18.4023438 C104.917969,18.7486979 104.977214,19.0722656 105.095703,19.3730469 C105.214193,19.6738281 105.38737,19.9358724 105.615234,20.1591797 C105.843099,20.382487 106.121094,20.5579427 106.449219,20.6855469 C106.777344,20.813151 107.146484,20.8769531 107.556641,20.8769531 Z" id="." fill="#F08238"></path>
            </g>
        </g>
    </g>
</svg>