<?xml version="1.0" encoding="UTF-8"?>
<svg width="20px" height="12px" viewBox="0 0 20 12" version="1.1" xmlns="http://www.w3.org/2000/svg" xmlns:xlink="http://www.w3.org/1999/xlink">
    <!-- Generator: Sketch 63 (92445) - https://sketch.com -->
    <title>ant-design:behance-outlined</title>
    <desc>Created with Sketch.</desc>
    <g id="Page-1" stroke="none" stroke-width="1" fill="none" fill-rule="evenodd">
        <g id="Desktop-HD" transform="translate(-995.000000, -737.000000)" fill-rule="nonzero">
            <g id="ant-design:behance-outlined" transform="translate(993.000000, 731.000000)">
                <g id="Icon" fill="#363636">
                    <path d="M14.859375,6.89765625 L19.5351562,6.89765625 L19.5351562,8.03203125 L14.859375,8.03203125 L14.859375,6.89765625 Z M10.1742187,11.3859375 C11.2078125,10.8914062 11.7492187,10.1390625 11.7492187,8.9765625 C11.7492187,6.67734375 10.0382812,6.11953125 8.0625,6.11953125 L2.625,6.11953125 L2.625,17.6601562 L8.21484375,17.6601562 C10.3101562,17.6601562 12.2765625,16.6523437 12.2765625,14.3085937 C12.2765625,12.8601562 11.5921875,11.7890625 10.1742187,11.3859375 Z M5.1609375,8.08828125 L7.53984375,8.08828125 C8.45625,8.08828125 9.27890625,8.34375 9.27890625,9.4078125 C9.27890625,10.3875 8.6390625,10.78125 7.73203125,10.78125 L5.1609375,10.78125 L5.1609375,8.08828125 Z M7.86796875,15.7007812 L5.15859375,15.7007812 L5.15859375,12.5226562 L7.921875,12.5226562 C9.0375,12.5226562 9.74296875,12.9890625 9.74296875,14.1703125 C9.74296875,15.3328125 8.9015625,15.7007812 7.86796875,15.7007812 L7.86796875,15.7007812 Z M21.3632813,13.603125 C21.3632813,11.1304688 19.9171875,9.0703125 17.3015625,9.0703125 C14.7585938,9.0703125 13.0289063,10.9851563 13.0289063,13.4953125 C13.0289063,16.096875 14.6671875,17.8828125 17.3015625,17.8828125 C19.2960938,17.8828125 20.5875,16.9851563 21.2085938,15.0703125 L19.1859375,15.0703125 C18.965625,15.7851563 18.0703125,16.1601563 17.3742188,16.1601563 C16.0289063,16.1601563 15.3257813,15.3726563 15.3257813,14.034375 L21.346875,14.034375 C21.3539063,13.8960938 21.3632813,13.7507813 21.3632813,13.603125 L21.3632813,13.603125 Z M15.3257812,12.5859375 C15.3984375,11.4867187 16.1320312,10.8 17.2289062,10.8 C18.3820312,10.8 18.9585937,11.4773437 19.059375,12.5859375 L15.3257812,12.5859375 Z" id="Icon-Shape"></path>
                </g>
                <rect id="ViewBox" x="0" y="0" width="24" height="24"></rect>
            </g>
        </g>
    </g>
</svg>