<?xml version="1.0" encoding="UTF-8"?>
<svg width="20px" height="20px" viewBox="0 0 20 20" version="1.1" xmlns="http://www.w3.org/2000/svg" xmlns:xlink="http://www.w3.org/1999/xlink">
    <!-- Generator: Sketch 63 (92445) - https://sketch.com -->
    <title>ant-design:dribbble-outlined</title>
    <desc>Created with Sketch.</desc>
    <g id="Page-1" stroke="none" stroke-width="1" fill="none" fill-rule="evenodd">
        <g id="Desktop-HD" transform="translate(-1039.000000, -733.000000)" fill-rule="nonzero">
            <g id="ant-design:dribbble-outlined" transform="translate(1037.000000, 731.000000)">
                <g id="Icon" fill="#363636">
                    <path d="M12,2.25 C6.6234375,2.25 2.25,6.6234375 2.25,12 C2.25,17.3765625 6.6234375,21.75 12,21.75 C17.3765625,21.75 21.75,17.3765625 21.75,12 C21.75,6.6234375 17.3765625,2.25 12,2.25 Z M18.4476562,6.7453125 C19.6078125,8.16328125 20.3109375,9.96796875 20.3273437,11.934375 C20.053125,11.8757812 17.2992188,11.3179687 14.5289063,11.6671875 C14.4703125,11.5242187 14.4117188,11.38125 14.3507812,11.2382812 C14.1773438,10.8328125 13.9921875,10.4273437 13.7976562,10.03125 C16.875,8.77265625 18.271875,6.984375 18.4476562,6.7453125 Z M12,3.684375 C14.1164063,3.684375 16.05,4.47890625 17.5195312,5.78203125 C17.3695313,5.9953125 16.115625,7.68046875 13.1554688,8.79140625 C11.7914062,6.28359375 10.2796875,4.22578125 10.0476562,3.91640625 C10.6875,3.76171875 11.3414062,3.684375 12,3.684375 Z M8.45859375,4.4765625 C8.67890625,4.7765625 10.1671875,6.84140625 11.5453125,9.29296875 C7.65,10.3265625 4.21875,10.3125 3.84609375,10.3078125 C4.3875,7.72265625 6.12890625,5.57578125 8.45859375,4.4765625 Z M3.67265625,12.0117188 C3.67265625,11.9273437 3.675,11.840625 3.67734375,11.75625 C4.040625,11.7632813 8.0765625,11.8148437 12.2367187,10.5703125 C12.4757813,11.0367187 12.703125,11.5101562 12.9117187,11.9835937 C12.8015625,12.0140625 12.6914062,12.046875 12.5835937,12.0820312 C8.2875,13.4742187 6.00234375,17.259375 5.8125,17.5804687 C4.48359375,16.1039062 3.67265625,14.1515625 3.67265625,12.0117188 Z M12,20.3390935 C10.0734375,20.3390935 8.29921875,19.6828125 6.88828125,18.58125 C7.03828125,18.2742187 8.7234375,15.01875 13.4203125,13.3804687 L13.4742187,13.3617187 C14.64375,16.3992187 15.1265625,18.946875 15.2507812,19.678125 C14.2234159,20.1172334 13.1172674,20.3421317 12,20.3390935 L12,20.3390935 Z M16.6523438,18.9164062 C16.5679687,18.4101562 16.125,15.9726562 15.0351562,12.9796875 C17.6460937,12.5625 19.9382812,13.246875 20.221875,13.3359375 C19.8515625,15.6515625 18.5226562,17.653125 16.6523438,18.9164062 L16.6523438,18.9164062 Z" id="Icon-Shape"></path>
                </g>
                <rect id="ViewBox" x="0" y="0" width="24" height="24"></rect>
            </g>
        </g>
    </g>
</svg>