<?xml version="1.0" encoding="UTF-8"?>
<svg width="20px" height="20px" viewBox="0 0 20 20" version="1.1" xmlns="http://www.w3.org/2000/svg" xmlns:xlink="http://www.w3.org/1999/xlink">
    <!-- Generator: Sketch 63 (92445) - https://sketch.com -->
    <title>ant-design:instagram-filled</title>
    <desc>Created with Sketch.</desc>
    <g id="Page-1" stroke="none" stroke-width="1" fill="none" fill-rule="evenodd">
        <g id="Desktop-HD" transform="translate(-907.000000, -733.000000)" fill-rule="nonzero">
            <g id="ant-design:instagram-filled" transform="translate(905.000000, 731.000000)">
                <g id="Icon" fill="#363636">
                    <path d="M12,8.87578125 C10.2796875,8.87578125 8.87578125,10.2796875 8.87578125,12 C8.87578125,13.7203125 10.2796875,15.1242187 12,15.1242187 C13.7203125,15.1242187 15.1242187,13.7203125 15.1242187,12 C15.1242187,10.2796875 13.7203125,8.87578125 12,8.87578125 Z M21.3703125,12 C21.3703125,10.70625 21.3820312,9.42421875 21.309375,8.1328125 C21.2367187,6.6328125 20.8945312,5.3015625 19.7976562,4.2046875 C18.6984375,3.10546875 17.3695312,2.765625 15.8695312,2.69296875 C14.5757812,2.6203125 13.29375,2.63203125 12.0023437,2.63203125 C10.7085937,2.63203125 9.4265625,2.6203125 8.13515625,2.69296875 C6.63515625,2.765625 5.30390625,3.1078125 4.20703125,4.2046875 C3.1078125,5.30390625 2.76796875,6.6328125 2.6953125,8.1328125 C2.62265625,9.4265625 2.634375,10.7085937 2.634375,12 C2.634375,13.2914062 2.62265625,14.5757812 2.6953125,15.8671875 C2.76796875,17.3671875 3.11015625,18.6984375 4.20703125,19.7953125 C5.30625,20.8945312 6.63515625,21.234375 8.13515625,21.3070312 C9.42890625,21.3796875 10.7109375,21.3679687 12.0023438,21.3679687 C13.2960938,21.3679687 14.578125,21.3796875 15.8695312,21.3070312 C17.3695312,21.234375 18.7007812,20.8921875 19.7976562,19.7953125 C20.896875,18.6960937 21.2367187,17.3671875 21.309375,15.8671875 C21.384375,14.5757812 21.3703125,13.29375 21.3703125,12 Z M12,16.8070312 C9.33984375,16.8070312 7.19296875,14.6601562 7.19296875,12 C7.19296875,9.33984375 9.33984375,7.19296875 12,7.19296875 C14.6601562,7.19296875 16.8070312,9.33984375 16.8070312,12 C16.8070312,14.6601562 14.6601562,16.8070312 12,16.8070312 Z M17.0039062,8.11875088 C16.3828125,8.11875088 15.88125,7.6171875 15.88125,6.99609375 C15.88125,6.375 16.3828125,5.8734375 17.0039062,5.8734375 C17.625,5.8734375 18.1265634,6.375 18.1265634,6.99609375 C18.1269363,7.29395514 18.0087768,7.57972439 17.7981569,7.79034436 C17.5875369,8.00096433 17.3017676,8.11912381 17.0039062,8.11875088 L17.0039062,8.11875088 Z" id="Icon-Shape"></path>
                </g>
                <rect id="ViewBox" x="0" y="0" width="24" height="24"></rect>
            </g>
        </g>
    </g>
</svg>