<?xml version="1.0" encoding="UTF-8"?>
<svg width="20px" height="20px" viewBox="0 0 20 20" version="1.1" xmlns="http://www.w3.org/2000/svg" xmlns:xlink="http://www.w3.org/1999/xlink">
    <!-- Generator: Sketch 63 (92445) - https://sketch.com -->
    <title>ant-design:linkedin-filled</title>
    <desc>Created with Sketch.</desc>
    <g id="Page-1" stroke="none" stroke-width="1" fill="none" fill-rule="evenodd">
        <g id="Desktop-HD" transform="translate(-951.000000, -733.000000)" fill-rule="nonzero">
            <g id="ant-design:linkedin-filled" transform="translate(949.000000, 731.000000)">
                <g id="Icon" fill="#363636">
                    <path d="M20.625,2.625 L3.375,2.625 C2.96015625,2.625 2.625,2.96015625 2.625,3.375 L2.625,20.625 C2.625,21.0398437 2.96015625,21.375 3.375,21.375 L20.625,21.375 C21.0398437,21.375 21.375,21.0398437 21.375,20.625 L21.375,3.375 C21.375,2.96015625 21.0398437,2.625 20.625,2.625 Z M8.18671875,18.6023438 L5.4046875,18.6023438 L5.4046875,9.65390625 L8.18671875,9.65390625 L8.18671875,18.6023438 Z M6.796875,8.43046875 C5.90631584,8.43046875 5.184375,7.70852791 5.184375,6.81796875 C5.184375,5.92740959 5.90631584,5.20546875 6.796875,5.20546875 C7.68743416,5.20546875 8.409375,5.92740959 8.409375,6.81796875 C8.40703125,7.70859375 7.68515625,8.43046875 6.796875,8.43046875 L6.796875,8.43046875 Z M18.6023437,18.6023438 L15.8226562,18.6023438 L15.8226562,14.25 C15.8226562,13.2117188 15.8039063,11.878125 14.3765625,11.878125 C12.9304687,11.878125 12.7078125,13.0078125 12.7078125,14.175 L12.7078125,18.6023438 L9.93046875,18.6023438 L9.93046875,9.65390625 L12.5976562,9.65390625 L12.5976562,10.8773437 L12.6351562,10.8773437 C13.0054687,10.1742187 13.9125,9.43125 15.2671875,9.43125 C18.084375,9.43125 18.6023437,11.2851562 18.6023437,13.6945313 L18.6023437,18.6023438 L18.6023437,18.6023438 Z" id="Icon-Shape"></path>
                </g>
                <rect id="ViewBox" x="0" y="0" width="24" height="24"></rect>
            </g>
        </g>
    </g>
</svg>