<?xml version="1.0" encoding="UTF-8"?>
<svg width="22px" height="18px" viewBox="0 0 22 18" version="1.1" xmlns="http://www.w3.org/2000/svg" xmlns:xlink="http://www.w3.org/1999/xlink">
    <!-- Generator: Sketch 63 (92445) - https://sketch.com -->
    <title>ant-design:mail-filled</title>
    <desc>Created with Sketch.</desc>
    <g id="Page-1" stroke="none" stroke-width="1" fill="none" fill-rule="evenodd">
        <g id="Desktop-HD" transform="translate(-1126.000000, -734.000000)" fill-rule="nonzero">
            <g id="ant-design:mail-filled" transform="translate(1125.000000, 731.000000)">
                <g id="Icon" fill="#363636">
                    <path d="M21.75,3.75 L2.25,3.75 C1.83515625,3.75 1.5,4.08515625 1.5,4.5 L1.5,19.5 C1.5,19.9148437 1.83515625,20.25 2.25,20.25 L21.75,20.25 C22.1648438,20.25 22.5,19.9148437 22.5,19.5 L22.5,4.5 C22.5,4.08515625 22.1648438,3.75 21.75,3.75 Z M19.85625,6.30234375 L12.4617188,12.05625 C12.2789063,12.1992188 12.0234375,12.1992188 11.840625,12.05625 L4.44375,6.30234375 C4.3865815,6.25822508 4.36382137,6.18262008 4.38713336,6.11427356 C4.41044535,6.04592705 4.47466216,6 4.546875,6 L19.753125,6 C19.8253378,6 19.8895546,6.04592705 19.9128666,6.11427356 C19.9361786,6.18262008 19.9134185,6.25822508 19.85625,6.30234375 L19.85625,6.30234375 Z" id="Icon-Shape"></path>
                </g>
                <rect id="ViewBox" x="0" y="0" width="24" height="24"></rect>
            </g>
        </g>
    </g>
</svg>