<?xml version="1.0" encoding="UTF-8"?>
<svg width="20px" height="16px" viewBox="0 0 20 16" version="1.1" xmlns="http://www.w3.org/2000/svg" xmlns:xlink="http://www.w3.org/1999/xlink">
    <!-- Generator: Sketch 63 (92445) - https://sketch.com -->
    <title>ant-design:twitter-outlined</title>
    <desc>Created with Sketch.</desc>
    <g id="Page-1" stroke="none" stroke-width="1" fill="none" fill-rule="evenodd">
        <g id="Desktop-HD" transform="translate(-863.000000, -735.000000)" fill-rule="nonzero">
            <g id="ant-design:twitter-outlined" transform="translate(861.000000, 731.000000)">
                <g id="Icon" fill="#363636">
                    <path d="M21.75,5.96015625 C21.0328125,6.26953125 20.2523438,6.4921875 19.4484375,6.57890625 C20.2830762,6.08305252 20.9081024,5.29968642 21.20625,4.37578125 C20.4230464,4.84169331 19.5650473,5.16839908 18.6703125,5.34140625 C17.9143822,4.53327188 16.8565739,4.07568063 15.75,4.07811526 C13.5351562,4.07811526 11.7539062,5.8734375 11.7539062,8.0765625 C11.7539062,8.3859375 11.7914062,8.6953125 11.8523437,8.99296875 C8.5359375,8.81953125 5.578125,7.23515625 3.61171875,4.809375 C3.25341858,5.4213643 3.06565707,6.1181861 3.06796875,6.82734375 C3.06796875,8.21484375 3.7734375,9.43828125 4.84921875,10.1578125 C4.21524477,10.1328448 3.59611555,9.95858925 3.0421875,9.64921875 L3.0421875,9.6984375 C3.0421875,11.6414062 4.415625,13.2515625 6.24609375,13.621875 C5.90240313,13.7111493 5.54884459,13.7568206 5.19375,13.7578125 C4.93359375,13.7578125 4.6875,13.7320312 4.4390625,13.696875 C4.9453125,15.28125 6.41953125,16.4320313 8.175,16.4695313 C6.8015625,17.5453125 5.08125,18.178125 3.21328125,18.178125 C2.878125,18.178125 2.56875,18.1664063 2.24765625,18.1289062 C4.01953125,19.265625 6.121875,19.921875 8.3859375,19.921875 C15.7359375,19.921875 19.7578125,13.8328125 19.7578125,8.54765625 C19.7578125,8.37421875 19.7578125,8.20078125 19.7460938,8.02734375 C20.5242188,7.4578125 21.20625,6.75234375 21.75,5.96015625 Z" id="Icon-Path"></path>
                </g>
                <rect id="ViewBox" x="0" y="0" width="24" height="24"></rect>
            </g>
        </g>
    </g>
</svg>